<svg width="193" height="88" viewBox="0 0 193 88" fill="none" xmlns="http://www.w3.org/2000/svg">
<path d="M5.3125 79.3672H2.07031V78.5469H5.3125C5.98958 78.5469 6.53906 78.4375 6.96094 78.2188C7.38802 77.9948 7.69792 77.6927 7.89062 77.3125C8.08854 76.9323 8.1875 76.5052 8.1875 76.0312C8.1875 75.5677 8.08854 75.1406 7.89062 74.75C7.69792 74.3594 7.38802 74.0469 6.96094 73.8125C6.53906 73.5729 5.98958 73.4531 5.3125 73.4531H2.40625V84H1.44531V72.625H5.3125C6.14583 72.625 6.84635 72.7682 7.41406 73.0547C7.98698 73.3411 8.41927 73.7396 8.71094 74.25C9.0026 74.7604 9.14844 75.349 9.14844 76.0156C9.14844 76.7135 9.0026 77.3151 8.71094 77.8203C8.41927 78.3203 7.98958 78.7031 7.42188 78.9688C6.85417 79.2344 6.15104 79.3672 5.3125 79.3672ZM26.215 83.1797V84H19.8166V83.1797H26.215ZM20.1056 72.625V84H19.1447V72.625H20.1056ZM25.4181 77.7266V78.5469H19.8166V77.7266H25.4181ZM26.1759 72.625V73.4531H19.8166V72.625H26.1759ZM36.0706 72.625H39.7659C40.5524 72.625 41.2347 72.7526 41.8128 73.0078C42.3909 73.263 42.8363 73.6406 43.1488 74.1406C43.4665 74.6354 43.6253 75.2448 43.6253 75.9688C43.6253 76.5052 43.5107 76.9922 43.2816 77.4297C43.0576 77.8672 42.7477 78.2344 42.3519 78.5312C41.956 78.8229 41.4977 79.0234 40.9769 79.1328L40.6409 79.2578H36.6956L36.68 78.4375H39.9847C40.5784 78.4375 41.0732 78.3229 41.4691 78.0938C41.8649 77.8646 42.1618 77.5625 42.3597 77.1875C42.5628 76.8073 42.6644 76.401 42.6644 75.9688C42.6644 75.4531 42.5524 75.0078 42.3284 74.6328C42.1097 74.2526 41.7842 73.9609 41.3519 73.7578C40.9196 73.5547 40.3909 73.4531 39.7659 73.4531H37.0316V84H36.0706V72.625ZM43.0941 84L40.1488 78.9141L41.18 78.9062L44.1175 83.8984V84H43.0941ZM55.0669 72.625V84H54.1059V72.625H55.0669ZM60.3638 77.8594V78.6875H54.7466V77.8594H60.3638ZM61.1528 72.625V73.4531H54.7466V72.625H61.1528ZM79.3444 77.7031V78.9219C79.3444 79.7188 79.2402 80.4401 79.0319 81.0859C78.8288 81.7266 78.5319 82.276 78.1413 82.7344C77.7558 83.1927 77.2923 83.5443 76.7506 83.7891C76.209 84.0339 75.5996 84.1562 74.9225 84.1562C74.261 84.1562 73.6569 84.0339 73.11 83.7891C72.5683 83.5443 72.1022 83.1927 71.7116 82.7344C71.3209 82.276 71.0189 81.7266 70.8053 81.0859C70.5918 80.4401 70.485 79.7188 70.485 78.9219V77.7031C70.485 76.9062 70.5892 76.1875 70.7975 75.5469C71.011 74.901 71.3131 74.349 71.7038 73.8906C72.0944 73.4323 72.5605 73.0807 73.1022 72.8359C73.6439 72.5911 74.2454 72.4688 74.9069 72.4688C75.584 72.4688 76.1933 72.5911 76.735 72.8359C77.2767 73.0807 77.7428 73.4323 78.1334 73.8906C78.5241 74.349 78.8235 74.901 79.0319 75.5469C79.2402 76.1875 79.3444 76.9062 79.3444 77.7031ZM78.3913 78.9219V77.6875C78.3913 77.0156 78.3131 76.4115 78.1569 75.875C78.0058 75.3385 77.7793 74.8802 77.4772 74.5C77.1803 74.1198 76.8157 73.8281 76.3834 73.625C75.9511 73.4219 75.459 73.3203 74.9069 73.3203C74.3704 73.3203 73.8886 73.4219 73.4616 73.625C73.0345 73.8281 72.6699 74.1198 72.3678 74.5C72.0709 74.8802 71.8418 75.3385 71.6803 75.875C71.5241 76.4115 71.4459 77.0156 71.4459 77.6875V78.9219C71.4459 79.599 71.5241 80.2083 71.6803 80.75C71.8418 81.2865 72.0735 81.7474 72.3756 82.1328C72.6777 82.513 73.0423 82.8047 73.4694 83.0078C73.9017 83.2109 74.386 83.3125 74.9225 83.3125C75.4798 83.3125 75.972 83.2109 76.3991 83.0078C76.8261 82.8047 77.1881 82.513 77.485 82.1328C77.7819 81.7474 78.0058 81.2865 78.1569 80.75C78.3131 80.2083 78.3913 79.599 78.3913 78.9219ZM89.5906 72.625H93.2859C94.0724 72.625 94.7547 72.7526 95.3328 73.0078C95.9109 73.263 96.3562 73.6406 96.6687 74.1406C96.9865 74.6354 97.1453 75.2448 97.1453 75.9688C97.1453 76.5052 97.0307 76.9922 96.8016 77.4297C96.5776 77.8672 96.2677 78.2344 95.8719 78.5312C95.476 78.8229 95.0177 79.0234 94.4969 79.1328L94.1609 79.2578H90.2156L90.2 78.4375H93.5047C94.0984 78.4375 94.5932 78.3229 94.9891 78.0938C95.3849 77.8646 95.6818 77.5625 95.8797 77.1875C96.0828 76.8073 96.1844 76.401 96.1844 75.9688C96.1844 75.4531 96.0724 75.0078 95.8484 74.6328C95.6297 74.2526 95.3042 73.9609 94.8719 73.7578C94.4396 73.5547 93.9109 73.4531 93.2859 73.4531H90.5516V84H89.5906V72.625ZM96.6141 84L93.6687 78.9141L94.7 78.9062L97.6375 83.8984V84H96.6141ZM107.923 72.625H108.892L113.095 82.6406L117.306 72.625H118.267L113.462 84H112.728L107.923 72.625ZM107.626 72.625H108.478L108.579 79.0312V84H107.626V72.625ZM117.728 72.625H118.579V84H117.618V79.0312L117.728 72.625ZM133.185 73.3047L129.247 84H128.247L132.544 72.625H133.239L133.185 73.3047ZM136.763 84L132.818 73.3047L132.763 72.625H133.458L137.763 84H136.763ZM136.06 79.9844V80.8125H130.021V79.9844H136.06ZM155.759 72.625V84H154.79L148.251 74.2812V84H147.29V72.625H148.251L154.806 82.3438V72.625H155.759ZM173.591 80.4531H174.552C174.474 81.2188 174.263 81.8802 173.919 82.4375C173.576 82.9896 173.107 83.4141 172.513 83.7109C171.919 84.0078 171.203 84.1562 170.365 84.1562C169.719 84.1562 169.133 84.0339 168.607 83.7891C168.086 83.5443 167.638 83.1979 167.263 82.75C166.888 82.2969 166.599 81.7552 166.396 81.125C166.193 80.4948 166.091 79.7943 166.091 79.0234V77.6016C166.091 76.8307 166.193 76.1328 166.396 75.5078C166.599 74.8776 166.891 74.3359 167.271 73.8828C167.651 73.4297 168.107 73.0807 168.638 72.8359C169.169 72.5911 169.768 72.4688 170.435 72.4688C171.242 72.4688 171.94 72.6172 172.529 72.9141C173.117 73.2057 173.581 73.6276 173.919 74.1797C174.263 74.7318 174.474 75.3984 174.552 76.1797H173.591C173.518 75.5651 173.357 75.0443 173.107 74.6172C172.857 74.1901 172.511 73.8646 172.068 73.6406C171.63 73.4115 171.086 73.2969 170.435 73.2969C169.904 73.2969 169.43 73.3984 169.013 73.6016C168.596 73.8047 168.242 74.0964 167.951 74.4766C167.659 74.8516 167.435 75.3021 167.279 75.8281C167.128 76.3542 167.052 76.9401 167.052 77.5859V79.0234C167.052 79.6484 167.125 80.224 167.271 80.75C167.417 81.276 167.63 81.7318 167.912 82.1172C168.198 82.5026 168.547 82.8021 168.958 83.0156C169.37 83.2292 169.839 83.3359 170.365 83.3359C171.037 83.3359 171.596 83.2292 172.044 83.0156C172.497 82.7969 172.849 82.474 173.099 82.0469C173.349 81.6198 173.513 81.0885 173.591 80.4531ZM191.806 83.1797V84H185.408V83.1797H191.806ZM185.697 72.625V84H184.736V72.625H185.697ZM191.009 77.7266V78.5469H185.408V77.7266H191.009ZM191.767 72.625V73.4531H185.408V72.625H191.767Z" fill="black"/>
<path d="M77.125 24.6875C77.125 26.0781 76.9531 27.3203 76.6094 28.4141C76.2656 29.5078 75.7969 30.4766 75.2031 31.3203C74.625 32.1484 73.9531 32.8594 73.1875 33.4531C72.4219 34.0469 71.6172 34.5391 70.7734 34.9297C69.9453 35.3047 69.1016 35.5781 68.2422 35.75C67.3984 35.9219 66.6016 36.0078 65.8516 36.0078L78.5781 47H69.1562L56.4531 36.0078H52.0703V29.9141H65.8516C66.6172 29.8516 67.3125 29.6953 67.9375 29.4453C68.5781 29.1797 69.125 28.8281 69.5781 28.3906C70.0469 27.9531 70.4062 27.4297 70.6562 26.8203C70.9062 26.1953 71.0312 25.4844 71.0312 24.6875V20.8438C71.0312 20.5 70.9844 20.2422 70.8906 20.0703C70.8125 19.8828 70.7031 19.75 70.5625 19.6719C70.4375 19.5781 70.2969 19.5234 70.1406 19.5078C70 19.4922 69.8672 19.4844 69.7422 19.4844H49.6328V47H43.5391V16.4609C43.5391 16.0391 43.6172 15.6406 43.7734 15.2656C43.9297 14.8906 44.1406 14.5625 44.4062 14.2812C44.6875 14 45.0156 13.7813 45.3906 13.625C45.7656 13.4687 46.1719 13.3906 46.6094 13.3906H69.7422C71.1016 13.3906 72.25 13.6406 73.1875 14.1406C74.125 14.625 74.8828 15.2422 75.4609 15.9922C76.0547 16.7266 76.4766 17.5234 76.7266 18.3828C76.9922 19.2422 77.125 20.0469 77.125 20.7969V24.6875ZM110.875 33.2656H91.6328V27.125H110.875V33.2656ZM113.617 47H91.6328C90.7891 47 89.8672 46.8516 88.8672 46.5547C87.8672 46.2578 86.9375 45.7734 86.0781 45.1016C85.2344 44.4141 84.5234 43.5312 83.9453 42.4531C83.3828 41.3594 83.1016 40.0234 83.1016 38.4453V16.4609C83.1016 16.0391 83.1797 15.6406 83.3359 15.2656C83.4922 14.8906 83.7031 14.5625 83.9688 14.2812C84.25 14 84.5781 13.7813 84.9531 13.625C85.3281 13.4687 85.7344 13.3906 86.1719 13.3906H113.617V19.4844H89.1953V38.4453C89.1953 39.2422 89.4062 39.8516 89.8281 40.2734C90.25 40.6953 90.8672 40.9062 91.6797 40.9062H113.617V47ZM153.156 13.3906L137.242 45.8047C136.992 46.3047 136.617 46.7031 136.117 47C135.633 47.3125 135.094 47.4688 134.5 47.4688C133.922 47.4688 133.383 47.3125 132.883 47C132.398 46.7031 132.023 46.3047 131.758 45.8047L115.867 13.3906H122.688L134.5 37.6016L146.359 13.3906H153.156Z" fill="black"/>
<g filter="url(#filter0_d_314_1250)">
<path d="M158 14C163.667 17 173.3 27.9 166.5 47.5L158 14Z" fill="black"/>
<path d="M158 14C163.667 17 173.3 27.9 166.5 47.5L158 14Z" stroke="black"/>
</g>
<g filter="url(#filter1_d_314_1250)">
<path d="M35.8389 47.5C30.1722 44.5 20.5389 33.6 27.3389 14L35.8389 47.5Z" fill="black"/>
<path d="M35.8389 47.5C30.1722 44.5 20.5389 33.6 27.3389 14L35.8389 47.5Z" stroke="black"/>
</g>
<defs>
<filter id="filter0_d_314_1250" x="157.238" y="9.03099" width="12.1007" height="40.2089" filterUnits="userSpaceOnUse" color-interpolation-filters="sRGB">
<feFlood flood-opacity="0" result="BackgroundImageFix"/>
<feColorMatrix in="SourceAlpha" type="matrix" values="0 0 0 0 0 0 0 0 0 0 0 0 0 0 0 0 0 0 127 0" result="hardAlpha"/>
<feOffset dy="-4"/>
<feComposite in2="hardAlpha" operator="out"/>
<feColorMatrix type="matrix" values="0 0 0 0 0.9125 0 0 0 0 0.350932 0 0 0 0 0.11026 0 0 0 1 0"/>
<feBlend mode="normal" in2="BackgroundImageFix" result="effect1_dropShadow_314_1250"/>
<feBlend mode="normal" in="SourceGraphic" in2="effect1_dropShadow_314_1250" result="shape"/>
</filter>
<filter id="filter1_d_314_1250" x="24.4999" y="12.2601" width="12.1007" height="40.2089" filterUnits="userSpaceOnUse" color-interpolation-filters="sRGB">
<feFlood flood-opacity="0" result="BackgroundImageFix"/>
<feColorMatrix in="SourceAlpha" type="matrix" values="0 0 0 0 0 0 0 0 0 0 0 0 0 0 0 0 0 0 127 0" result="hardAlpha"/>
<feOffset dy="4"/>
<feComposite in2="hardAlpha" operator="out"/>
<feColorMatrix type="matrix" values="0 0 0 0 0.9125 0 0 0 0 0.350932 0 0 0 0 0.11026 0 0 0 1 0"/>
<feBlend mode="normal" in2="BackgroundImageFix" result="effect1_dropShadow_314_1250"/>
<feBlend mode="normal" in="SourceGraphic" in2="effect1_dropShadow_314_1250" result="shape"/>
</filter>
</defs>
</svg>
